<?xml version="1.0" encoding="UTF-8" standalone="no"?>
<svg
   id="svg5212"
   viewBox="0 0 150 120"
   version="1.1"
   sodipodi:docname="coderbahamuto.svg"
   inkscape:version="1.4.3 (0d15f75, 2025-12-25)"
   width="150"
   height="120"
   xmlns:inkscape="http://www.inkscape.org/namespaces/inkscape"
   xmlns:sodipodi="http://sodipodi.sourceforge.net/DTD/sodipodi-0.dtd"
   xmlns="http://www.w3.org/2000/svg"
   xmlns:svg="http://www.w3.org/2000/svg"
   xmlns:rdf="http://www.w3.org/1999/02/22-rdf-syntax-ns#"
   xmlns:cc="http://creativecommons.org/ns#"
   xmlns:dc="http://purl.org/dc/elements/1.1/">
  <sodipodi:namedview
     id="namedview1"
     pagecolor="#000000"
     bordercolor="#000000"
     borderopacity="0.25"
     inkscape:showpageshadow="2"
     inkscape:pageopacity="0.0"
     inkscape:pagecheckerboard="0"
     inkscape:deskcolor="#d1d1d1"
     showguides="true"
     inkscape:zoom="8.3329642"
     inkscape:cx="69.963099"
     inkscape:cy="59.042615"
     inkscape:window-width="1560"
     inkscape:window-height="1191"
     inkscape:window-x="250"
     inkscape:window-y="123"
     inkscape:window-maximized="0"
     inkscape:current-layer="svg5212">
    <sodipodi:guide
       position="29.011691,109.67682"
       orientation="1,0"
       id="guide1"
       inkscape:locked="false" />
    <sodipodi:guide
       position="30.747094,115.98256"
       orientation="0,-1"
       id="guide2"
       inkscape:locked="false" />
    <sodipodi:guide
       position="99.964428,51.59697"
       orientation="1,0"
       id="guide3"
       inkscape:locked="false" />
    <sodipodi:guide
       position="39.72176,53.277044"
       orientation="1,0"
       id="guide4"
       inkscape:locked="false" />
    <sodipodi:guide
       position="49.922211,52.317002"
       orientation="1,0"
       id="guide5"
       inkscape:locked="false" />
    <sodipodi:guide
       position="80.076708,45.624546"
       orientation="1,0"
       id="guide6"
       inkscape:locked="false" />
    <sodipodi:guide
       position="89.012848,81.859385"
       orientation="1,0"
       id="guide7"
       inkscape:locked="false" />
    <sodipodi:guide
       position="39.950289,85.999252"
       orientation="0,-1"
       id="guide8"
       inkscape:locked="false" />
    <sodipodi:guide
       position="48.900124,75.995325"
       orientation="0,-1"
       id="guide9"
       inkscape:locked="false" />
    <sodipodi:guide
       position="59.000096,35.329125"
       orientation="1,0"
       id="guide10"
       inkscape:locked="false" />
    <sodipodi:guide
       position="70.056322,45.797311"
       orientation="1,0"
       id="guide11"
       inkscape:locked="false" />
    <sodipodi:guide
       position="67.551225,60.050447"
       orientation="0,-1"
       id="guide13"
       inkscape:locked="false" />
    <sodipodi:guide
       position="66.30146,35.97675"
       orientation="0,-1"
       id="guide14"
       inkscape:locked="false" />
    <sodipodi:guide
       position="108.50549,65.998812"
       orientation="0,-1"
       id="guide15"
       inkscape:locked="false" />
    <sodipodi:guide
       position="110.04487,61.07739"
       orientation="1,0"
       id="guide16"
       inkscape:locked="false" />
    <sodipodi:guide
       position="9.0384754,70.31476"
       orientation="1,0"
       id="guide17"
       inkscape:locked="false" />
    <sodipodi:guide
       position="68.587817,49.943678"
       orientation="0,-1"
       id="guide12"
       inkscape:locked="false" />
    <sodipodi:guide
       position="81.890744,40.009675"
       orientation="0,-1"
       id="guide18"
       inkscape:locked="false" />
    <sodipodi:guide
       position="80.508621,54.608341"
       orientation="0,-1"
       id="guide19"
       inkscape:locked="false" />
    <sodipodi:guide
       position="80.249473,44.933485"
       orientation="0,-1"
       id="guide20"
       inkscape:locked="false" />
  </sodipodi:namedview>
  <defs
     id="defs5214" />
  <metadata
     id="metadata5216">
    <rdf:RDF>
      <cc:Work
         rdf:about="">
        <dc:format>image/svg+xml</dc:format>
        <dc:type
           rdf:resource="http://purl.org/dc/dcmitype/StillImage" />
      </cc:Work>
    </rdf:RDF>
  </metadata>
  <path
     id="path5222"
     style="fill:#00e5ff;fill-rule:evenodd;stroke-width:0;stroke-miterlimit:4"
     inkscape:label="8-bit bug"
     d="M 98.985813 13.975894 L 98.985813 23.995425 L 108.95847 23.995425 L 108.95847 13.975894 L 98.985813 13.975894 z M 19.022923 13.981753 L 19.022923 23.999331 L 28.993626 23.999331 L 28.993626 13.981753 L 19.022923 13.981753 z M 28.999485 24.005191 L 28.999485 34.005191 L 38.999485 34.005191 L 38.999485 24.005191 L 28.999485 24.005191 z M 38.999485 34.005191 L 38.999485 44.005191 L 28.999485 44.005191 L 28.999485 54.005191 L 18.999485 54.005191 L 18.999485 63.833316 L 28.999485 63.833316 L 28.999485 94.005191 L 38.999485 94.005191 L 38.999485 84.005191 L 88.999485 84.005191 L 88.999485 94.005191 L 98.999485 94.005191 L 98.999485 63.987613 L 108.99949 63.987613 L 108.99949 54.005191 L 98.999485 54.005191 L 98.999485 44.005191 L 88.999485 44.005191 L 88.999485 34.005191 L 78.999485 34.005191 L 78.999485 44.005191 L 48.999485 44.005191 L 48.999485 34.005191 L 38.999485 34.005191 z M 88.999485 34.005191 L 98.999485 34.005191 L 98.999485 24.005191 L 88.999485 24.005191 L 88.999485 34.005191 z M 88.999485 94.005191 L 79.005345 94.005191 L 79.005345 104.00519 L 88.999485 104.00519 L 88.999485 94.005191 z M 38.999485 94.005191 L 38.999485 104.00519 L 48.995579 104.00519 L 48.995579 94.005191 L 38.999485 94.005191 z M 69.017063 54.001285 L 88.999485 54.005191 L 88.999485 64.005191 L 69.017063 64.001285 L 69.017063 54.001285 z M 38.999485 54.005191 L 58.999485 54.022769 L 58.999485 64.022769 L 38.999485 64.005191 L 38.999485 54.005191 z M 8.9994851 64.005191 L 8.9994851 73.946597 L -0.955593 73.946597 L -0.955593 83.966128 L 9.0151101 83.966128 L 9.0151101 73.997378 L 18.999485 73.997378 L 18.999485 64.005191 L 8.9994851 64.005191 z M 108.99949 64.005191 L 108.99949 73.911441 L 118.99949 73.911441 L 118.99949 64.005191 L 108.99949 64.005191 z M 58.98386 69.434878 L 69.089329 69.434878 L 69.089329 78.981753 L 58.98386 78.981753 L 58.98386 69.434878 z M 119.0112 73.987613 L 119.0112 84.005191 L 128.98191 84.005191 L 128.98191 73.987613 L 119.0112 73.987613 z M 49.003391 103.98761 L 49.003391 114.00519 L 58.974094 114.00519 L 58.974094 103.98761 L 49.003391 103.98761 z M 68.972141 104.00714 L 68.972141 114.02668 L 78.942845 114.02668 L 78.942845 104.00714 L 68.972141 104.00714 z "
     transform="translate(10.986843,-4.0012846)" />
</svg>
